Coordinates
version=1
nRows=20
nColumns=34
inDegrees=yes

Units are S.I. units (second, meters, Newtons, ...)
If the header above contains a line with 'inDegrees', this indicates whether rotational values are in degrees (yes) or radians (no).

endheader
time	pelvis_tilt	pelvis_list	pelvis_rotation	pelvis_tx	pelvis_ty	pelvis_tz	hip_flexion_r	hip_adduction_r	hip_rotation_r	knee_angle_r	ankle_angle_r	subtalar_angle_r	mtp_angle_r	hip_flexion_l	hip_adduction_l	hip_rotation_l	knee_angle_l	ankle_angle_l	subtalar_angle_l	mtp_angle_l	lumbar_extension	lumbar_bending	lumbar_rotation	arm_flex_r	arm_add_r	arm_rot_r	elbow_flex_r	pro_sup_r	arm_flex_l	arm_add_l	arm_rot_l	elbow_flex_l	pro_sup_l
      1.93333330	     -0.29313681	     -0.10698219	     11.97185980	     -0.15965525	      1.30863345	     -0.02465502	      2.48708316	      0.59937180	      3.70948753	      8.24458005	      8.50609034	    -16.46066262	      0.00000000	      8.87807063	     -3.24892059	      5.03400385	     15.12511621	      2.65558940	    -18.35003968	      0.00000000	     -9.53586202	      1.51195829	      2.02480620	      0.06311924	     -4.34802670	     -5.70692194	     39.04709558	    111.41465844	      3.93027583	     -2.69308434	     -9.30898858	     33.20501971	    114.23061720
      1.95000000	     -0.16472623	      0.01773578	     12.37975503	     -0.16060774	      1.31148846	     -0.02616150	      2.46894506	      0.44013394	      3.49579616	      8.56670941	      8.54552653	    -16.75460997	      0.00000000	      8.74478700	     -3.06997781	      5.51576015	     14.98417815	      2.76125749	    -18.21866992	      0.00000000	     -9.89561433	      1.49924108	      2.08089062	      0.26973723	     -4.46322585	     -5.81993848	     38.72542328	    111.41044666	      4.23884505	     -2.58298176	     -9.29681124	     33.27573150	    114.26732824
      1.96666670	     -0.10467282	      0.11555486	     12.77322940	     -0.15986618	      1.31269733	     -0.02669105	      2.37189343	      0.29743720	      3.48745607	      8.66891591	      8.52456544	    -16.86848035	      0.00000000	      8.56837888	     -2.91086100	      5.85973603	     14.74588044	      2.96051971	    -18.12484910	      0.00000000	    -10.04241359	      1.51204186	      2.07657169	      0.31909039	     -4.62693764	     -5.91391544	     38.46006960	    111.40898738	      4.46619395	     -2.53820100	     -9.28887498	     33.33806427	    114.28834381
      1.98333330	      0.72511738	      0.37054273	     13.44922273	     -0.15952600	      1.31655958	     -0.02818096	      1.17549771	      0.18040174	      3.09923294	      8.40303378	      8.10393241	    -17.31087579	      0.00000000	      7.56183413	     -2.75377984	      6.46978415	     14.52625418	      3.44363389	    -17.53949903	      0.00000000	    -11.13281703	      1.46160948	      2.13806424	      0.97536458	     -4.54679346	     -6.47699311	     36.80207334	    111.40673766	      4.84237639	     -2.42792898	     -9.09409829	     33.17488977	    114.50076101
      2.00000000	      0.71081417	      0.38668144	     13.80260237	     -0.16100178	      1.31484925	     -0.02894267	      1.18499299	      0.14651607	      3.16038949	      8.45515571	      8.11706603	    -17.30603925	      0.00000000	      7.54283378	     -2.75424160	      6.44676720	     14.40096820	      3.47003653	    -17.54089742	      0.00000000	    -11.17371729	      1.46472904	      2.22525310	      1.01300235	     -4.57476225	     -6.48590272	     36.78091188	    111.40770155	      4.76901178	     -2.43492940	     -9.09687177	     33.15545573	    114.50396101
      2.01666670	      1.21924019	      0.71682591	     14.50436216	     -0.16477458	      1.31994761	     -0.03237357	      0.42808087	     -0.16595146	      2.61397655	      8.28463136	      7.87089434	    -17.69841623	      0.00000000	      6.67779352	     -2.44245378	      7.11788717	     13.72972340	      3.76689444	    -16.69602835	      0.00000000	    -11.98180134	      1.38492630	      2.41404081	      1.40485618	     -4.74314261	     -7.06608657	     35.19880654	    111.44649804	      5.12392317	     -2.20790388	     -8.84589552	     33.15333215	    114.73129182
      2.03333330	      1.17317985	      0.78716262	     14.96339826	     -0.16666269	      1.32177221	     -0.03443271	      0.50556414	     -0.32750162	      2.46422865	      8.31386387	      7.86846531	    -17.83240959	      0.00000000	      6.52762508	     -2.30481888	      7.38284305	     13.14239132	      3.63577204	    -16.37418069	      0.00000000	    -12.16234063	      1.45109496	      2.53592840	      1.56198632	     -4.98985789	     -7.17644035	     34.96623589	    111.45744033	      5.20529020	     -2.06612268	     -8.79432746	     33.18710636	    114.77063264
      2.05000000	      1.65947133	      1.02667004	     15.57934798	     -0.16715445	      1.32330821	     -0.03841410	     -0.20019014	     -0.53236635	      2.09960793	      7.98453620	      7.43787110	    -17.92016098	      0.00000000	      5.75806132	     -2.11935389	      7.71197363	     12.51831496	      3.69730783	    -15.71452772	      0.00000000	    -12.99485096	      1.38128993	      2.70481875	      2.03427621	     -5.10456632	     -7.69760470	     33.60151531	    111.52413227	      5.44619130	     -1.92560074	     -8.49787619	     33.10650377	    115.01627811
      2.06666670	      1.73073213	      1.15615037	     16.12347980	     -0.16978619	      1.32788098	     -0.04106964	     -0.32848156	     -0.73768753	      1.79015559	      7.81024429	      7.16094108	    -17.90045045	      0.00000000	      5.36689383	     -1.92506785	      7.98419765	     11.71131334	      3.33331459	    -15.07765674	      0.00000000	    -13.35980705	      1.42148093	      2.84837460	      2.21319136	     -5.31131337	     -7.94329695	     33.04359616	    111.57517619	      5.53785602	     -1.77744074	     -8.35722887	     33.10928474	    115.14754447
      2.08333330	      1.67302207	      1.15164680	     16.53152764	     -0.16960336	      1.32439475	     -0.04446921	     -0.20114253	     -0.85649491	      1.80156671	      7.84192317	      7.03273151	    -17.85752491	      0.00000000	      5.20225867	     -1.77832374	      8.19799778	     11.16252733	      3.30623204	    -14.85884699	      0.00000000	    -13.60507853	      1.53078847	      2.98047898	      2.33331691	     -5.61603039	     -8.03925178	     32.91259376	    111.57928260	      5.36250096	     -1.63691010	     -8.31785587	     33.06735294	    115.17052997
      2.10000000	      2.37516758	      1.39968236	     17.08652307	     -0.17301563	      1.32251579	     -0.04772100	     -1.08449735	     -1.03288236	      1.24186131	      7.66407096	      6.59486881	    -17.88293636	      0.00000000	      4.10106234	     -1.63112703	      8.41242060	     10.36200976	      3.43942326	    -13.91834072	      0.00000000	    -14.47424498	      1.61949690	      3.44069200	      2.83040366	     -5.83138547	     -8.62962263	     31.67376971	    111.65354977	      5.59408475	     -1.41009538	     -8.06328806	     33.20597960	    115.40157105
      2.11666670	      2.32011653	      1.35850501	     17.40303715	     -0.17335958	      1.32316771	     -0.05163699	     -0.91924421	     -1.14983663	      1.07408698	      7.81018971	      6.57497369	    -17.97916277	      0.00000000	      3.90148221	     -1.52189907	      8.60337165	      9.74610422	      3.34183020	    -13.64815502	      0.00000000	    -14.57404309	      1.78255762	      3.64847723	      3.05215999	     -6.15587660	     -8.73019310	     31.62788240	    111.65612521	      5.36564785	     -1.30208007	     -8.03488376	     33.16559418	    115.42419944
      2.13333330	      2.35975688	      1.36020661	     17.79946883	     -0.17547306	      1.32504101	     -0.05500891	     -0.80391468	     -1.30322972	      0.79937276	      8.05767518	      6.47028849	    -18.07874429	      0.00000000	      3.59279584	     -1.38192864	      8.86468592	      9.13621703	      3.15862137	    -13.25491341	      0.00000000	    -14.62634246	      2.02201190	      3.92439294	      3.23919367	     -6.45548230	     -8.83606692	     31.49831372	    111.66128503	      5.16863600	     -1.11693876	     -7.99391623	     33.16293440	    115.44889057
      2.15000000	      2.96511449	      1.50254305	     18.37526869	     -0.17575713	      1.32472710	     -0.05782545	     -1.57276118	     -1.38686748	      0.37780692	      7.91650074	      6.05972711	    -18.14984379	      0.00000000	      2.69163362	     -1.31536703	      8.94726945	      8.57541046	      3.32900133	    -12.20536697	      0.00000000	    -15.38472619	      2.10299245	      4.31185026	      3.64973748	     -6.55148352	     -9.44295271	     30.51395831	    111.72861429	      5.39048805	     -1.01429705	     -7.74089408	     33.13981767	    115.67788524
      2.16666670	      2.98464113	      1.42913944	     18.75022803	     -0.17639851	      1.32456276	     -0.06099336	     -1.48532772	     -1.49559796	      0.05947033	      8.19713587	      6.03654101	    -18.37149815	      0.00000000	      2.47016394	     -1.27867308	      9.07192784	      8.00564018	      3.12281563	    -11.85404218	      0.00000000	    -15.46078748	      2.29208134	      4.56839305	      3.89030652	     -6.77398156	     -9.54396465	     30.48958987	    111.74031779	      5.23048889	     -0.98364498	     -7.70632248	     33.07197542	    115.71534775
      2.18333330	      3.12079911	      1.37061964	     19.21810262	     -0.17469419	      1.32218551	     -0.06651066	     -1.64057226	     -1.59653448	     -0.36221538	      8.45518904	      5.83863286	    -18.61479657	      0.00000000	      2.16224410	     -1.23617586	      9.19221458	      7.55219517	      3.03987371	    -11.53211099	      0.00000000	    -15.48559705	      2.47964939	      4.86847736	      3.97868723	     -6.97608136	     -9.66291058	     30.38309624	    111.75290536	      5.00841785	     -0.92732639	     -7.66561788	     32.95762814	    115.75654126
      2.20000000	      3.18602635	      1.35619528	     19.53224992	     -0.17507872	      1.31764514	     -0.07041071	     -1.72878757	     -1.75608518	     -0.71354086	      8.57520657	      5.77521120	    -18.80362972	      0.00000000	      2.02414773	     -1.11082895	      9.26378708	      7.34608683	      2.97632863	    -11.36087815	      0.00000000	    -15.45291696	      2.56762907	      5.23050234	      4.19176142	     -7.11060881	     -9.71979008	     30.40897667	    111.75455492	      4.68638633	     -0.99527846	     -7.66724351	     32.84171041	    115.77173946
      2.21666670	      3.53409483	      1.48325823	     20.17882351	     -0.17611060	      1.32472912	     -0.07244608	     -2.34496032	     -1.93642371	     -1.35502196	      8.44554016	      5.18249300	    -19.22728432	      0.00000000	      1.45431010	     -0.98369747	      9.40200120	      6.85853502	      3.00142119	    -10.47706593	      0.00000000	    -15.69776471	      2.65038647	      5.44504917	      4.28648080	     -7.17917860	    -10.22857913	     30.23184454	    111.78004105	      4.88381614	     -1.00366723	     -7.29862443	     32.30199599	    115.97091483
      2.23333330	      3.60332928	      1.43144671	     20.44480765	     -0.17396512	      1.31938322	     -0.07842518	     -2.43990016	     -2.04774931	     -1.54349309	      8.74787424	      5.20972868	    -19.36766088	      0.00000000	      1.30334269	     -0.89084166	      9.46479105	      6.79364856	      2.95403470	    -10.37499073	      0.00000000	    -15.58580944	      2.74196290	      5.75181514	      4.44994517	     -7.26241853	    -10.27184894	     30.30479286	    111.78011276	      4.54616028	     -1.13081419	     -7.30003189	     32.17682941	    115.98277842
      2.25000000	      3.65817059	      1.39951203	     20.78721478	     -0.17276285	      1.31822423	     -0.08020926	     -2.52773570	     -2.16304560	     -2.00540662	      9.03722847	      5.29404113	    -19.70384190	      0.00000000	      1.03461797	     -0.81754123	      9.50424513	      6.40068711	      2.91910136	    -10.19716012	      0.00000000	    -15.39305845	      2.78095263	      5.94177658	      4.43286088	     -7.30325257	    -10.35691162	     30.40176699	    111.78160614	      4.27815054	     -1.25288019	     -7.26423877	     31.99715220	    116.00774069
